<?xml version="1.0"?>
<svg width="640" height="480" xmlns="http://www.w3.org/2000/svg" xmlns:svg="http://www.w3.org/2000/svg">
 <!-- Created with SVG-edit - http://svg-edit.googlecode.com/ -->
 <g>
  <title>Layer 1</title>
  <rect id="svg_14" height="37.999999" width="33.999999" y="324.750001" x="197.000001" stroke-width="5" stroke="#000000" fill="#005fbf"/>
  <rect id="svg_15" height="37" width="37" y="325.25" x="63" stroke-width="5" stroke="#000000" fill="#005fbf"/>
  <rect id="svg_16" height="36" width="36" y="325.75" x="108" stroke-width="5" stroke="#000000" fill="#005fbf"/>
  <rect id="svg_17" height="37" width="37" y="325.25" x="152" stroke-width="5" stroke="#000000" fill="#005fbf"/>
  <rect id="svg_28" height="37.999999" width="33.999999" y="324.750001" x="373.000001" stroke-width="5" stroke="#000000" fill="#005fbf"/>
  <rect id="svg_29" height="37" width="37" y="325.25" x="239" stroke-width="5" stroke="#000000" fill="#005fbf"/>
  <rect id="svg_30" height="36" width="36" y="325.75" x="284" stroke-width="5" stroke="#000000" fill="#005fbf"/>
  <rect id="svg_31" height="37" width="37" y="325.25" x="328" stroke-width="5" stroke="#000000" fill="#005fbf"/>
  <rect id="svg_32" height="37.999999" width="33.999999" y="276.750001" x="196.000001" stroke-width="5" stroke="#000000" fill="#005fbf"/>
  <rect id="svg_33" height="37" width="37" y="276.75" x="63" stroke-width="5" stroke="#000000" fill="#005fbf"/>
  <rect id="svg_34" height="36" width="36" y="277.75" x="107" stroke-width="5" stroke="#000000" fill="#005fbf"/>
  <rect id="svg_35" height="37" width="37" y="277.75" x="151" stroke-width="5" stroke="#000000" fill="#005fbf"/>
  <rect id="svg_36" height="37.999999" width="33.999999" y="278.250001" x="373.000001" stroke-width="5" stroke="#000000" fill="#005fbf"/>
  <rect id="svg_40" height="37.999999" width="33.999999" y="229.750001" x="196.000001" stroke-width="5" stroke="#000000" fill="#005fbf"/>
  <rect id="svg_41" height="37" width="37" y="229.75" x="63" stroke-width="5" stroke="#000000" fill="#005fbf"/>
  <rect id="svg_42" height="36" width="36" y="230.75" x="107" stroke-width="5" stroke="#000000" fill="#005fbf"/>
  <rect id="svg_43" height="37" width="37" y="230.75" x="151" stroke-width="5" stroke="#000000" fill="#005fbf"/>
  <rect id="svg_44" height="37.999999" width="33.999999" y="231.250001" x="373.000001" stroke-width="5" stroke="#000000" fill="#005fbf"/>
  <rect id="svg_48" height="37.999999" width="33.999999" y="182.750001" x="196.000001" stroke-width="5" stroke="#000000" fill="#005fbf"/>
  <rect id="svg_52" height="37.999999" width="33.999999" y="184.250001" x="373.000001" stroke-width="5" stroke="#000000" fill="#005fbf"/>
  <rect id="svg_56" height="37.999999" width="33.999999" y="134.750001" x="198.000001" stroke-width="5" stroke="#000000" fill="#005fbf"/>
  <rect id="svg_60" height="37.999999" width="33.999999" y="136.250001" x="373.000001" stroke-width="5" stroke="#000000" fill="#005fbf"/>
  <rect id="svg_64" height="37.999999" width="33.999999" y="88.750001" x="197.000001" stroke-width="5" stroke="#000000" fill="#005fbf"/>
  <rect id="svg_68" height="37.999999" width="33.999999" y="90.250001" x="373.000001" stroke-width="5" stroke="#000000" fill="#005fbf"/>
  <rect id="svg_69" height="37" width="37" y="90.25" x="239" stroke-width="5" stroke="#000000" fill="#005fbf"/>
  <rect id="svg_70" height="36" width="36" y="91.25" x="284" stroke-width="5" stroke="#000000" fill="#005fbf"/>
  <rect id="svg_71" height="37" width="37" y="91.25" x="328" stroke-width="5" stroke="#000000" fill="#005fbf"/>
  <rect id="svg_72" height="37.999999" width="33.999999" y="40.500001" x="197.000001" stroke-width="5" stroke="#000000" fill="#005fbf"/>
  <rect id="svg_76" height="37.999999" width="33.999999" y="40.500001" x="373.000001" stroke-width="5" stroke="#000000" fill="#005fbf"/>
  <rect id="svg_77" height="37" width="37" y="41" x="239" stroke-width="5" stroke="#000000" fill="#005fbf"/>
  <rect id="svg_78" height="36" width="36" y="41.5" x="284" stroke-width="5" stroke="#000000" fill="#005fbf"/>
  <rect id="svg_79" height="37" width="37" y="41" x="328" stroke-width="5" stroke="#000000" fill="#005fbf"/>
  <path id="svg_80" d="m99.959839,48.493011c0,3.344269 -8.283081,6.055405 -18.500671,6.055405m18.500671,-6.055405l0,0c0,3.344269 -8.283081,6.055405 -18.500671,6.055405c-10.217468,0 -18.500854,-2.711136 -18.500854,-6.055405m0,0l0,0c0,-3.343964 8.283386,-6.055435 18.500854,-6.055435c10.21759,0 18.500671,2.711472 18.500671,6.055435l0,24.222656c0,3.344025 -8.283081,6.055389 -18.500671,6.055389c-10.217468,0 -18.500854,-2.711365 -18.500854,-6.055389l0,-24.222656z" stroke-linecap="null" stroke-linejoin="null" stroke-dasharray="null" stroke-width="5" stroke="#000000" fill="#56aaff"/>
  <path id="svg_82" d="m276.500854,143.494965c0,3.344269 -8.283081,6.055405 -18.500671,6.055405m18.500671,-6.055405l0,0c0,3.344269 -8.283081,6.055405 -18.500671,6.055405c-10.217468,0 -18.500854,-2.711136 -18.500854,-6.055405m0,0l0,0c0,-3.343964 8.283386,-6.055435 18.500854,-6.055435c10.21759,0 18.500671,2.711472 18.500671,6.055435l0,24.222656c0,3.344025 -8.283081,6.055389 -18.500671,6.055389c-10.217468,0 -18.500854,-2.711365 -18.500854,-6.055389l0,-24.222656z" stroke-linecap="null" stroke-linejoin="null" stroke-dasharray="null" stroke-width="5" stroke="#000000" fill="#56aaff"/>
  <path id="svg_83" d="m190.500854,48.494965c0,3.344269 -8.283081,6.055405 -18.500671,6.055405m18.500671,-6.055405l0,0c0,3.344269 -8.283081,6.055405 -18.500671,6.055405c-10.217468,0 -18.500854,-2.711136 -18.500854,-6.055405m0,0l0,0c0,-3.343964 8.283386,-6.055435 18.500854,-6.055435c10.21759,0 18.500671,2.711472 18.500671,6.055435l0,24.222656c0,3.344025 -8.283081,6.055389 -18.500671,6.055389c-10.217468,0 -18.500854,-2.711365 -18.500854,-6.055389l0,-24.222656z" stroke-linecap="null" stroke-linejoin="null" stroke-dasharray="null" stroke-width="5" stroke="#000000" fill="#56aaff"/>
  <path id="svg_84" d="m364.500854,189.494965c0,3.344269 -8.283081,6.055389 -18.500671,6.055389m18.500671,-6.055389l0,0c0,3.344269 -8.283081,6.055389 -18.500671,6.055389c-10.217468,0 -18.500854,-2.711121 -18.500854,-6.055389m0,0l0,0c0,-3.343964 8.283386,-6.05545 18.500854,-6.05545c10.21759,0 18.500671,2.711487 18.500671,6.05545l0,24.222656c0,3.344025 -8.283081,6.055389 -18.500671,6.055389c-10.217468,0 -18.500854,-2.711365 -18.500854,-6.055389l0,-24.222656z" stroke-linecap="null" stroke-linejoin="null" stroke-dasharray="null" stroke-width="5" stroke="#000000" fill="#56aaff"/>
  <path id="svg_85" d="m146.231323,48.387543c0,3.344269 -8.283081,6.055389 -18.500671,6.055389m18.500671,-6.055389l0,0c0,3.344269 -8.283081,6.055389 -18.500671,6.055389c-10.217468,0 -18.500854,-2.711121 -18.500854,-6.055389m0,0l0,0c0,-3.343964 8.283386,-6.05545 18.500854,-6.05545c10.21759,0 18.500671,2.711487 18.500671,6.05545l0,24.222656c0,3.344025 -8.283081,6.055389 -18.500671,6.055389c-10.217468,0 -18.500854,-2.711365 -18.500854,-6.055389l0,-24.222656z" stroke-linecap="null" stroke-linejoin="null" stroke-dasharray="null" stroke-width="5" stroke="#000000" fill="#56aaff"/>
  <path id="svg_86" d="m320.772339,144.389496c0,3.344269 -8.283081,6.055389 -18.500671,6.055389m18.500671,-6.055389l0,0c0,3.344269 -8.283081,6.055389 -18.500671,6.055389c-10.217468,0 -18.500854,-2.711121 -18.500854,-6.055389m0,0l0,0c0,-3.343964 8.283386,-6.05545 18.500854,-6.05545c10.21759,0 18.500671,2.711487 18.500671,6.05545l0,24.222656c0,3.344025 -8.283081,6.055389 -18.500671,6.055389c-10.217468,0 -18.500854,-2.711365 -18.500854,-6.055389l0,-24.222656z" stroke-linecap="null" stroke-linejoin="null" stroke-dasharray="null" stroke-width="5" stroke="#000000" fill="#56aaff"/>
  <path id="svg_87" d="m188.772339,93.389496c0,3.344269 -8.283081,6.055389 -18.500671,6.055389m18.500671,-6.055389l0,0c0,3.344269 -8.283081,6.055389 -18.500671,6.055389c-10.217468,0 -18.500854,-2.711121 -18.500854,-6.055389m0,0l0,0c0,-3.343964 8.283386,-6.05545 18.500854,-6.05545c10.21759,0 18.500671,2.711487 18.500671,6.05545l0,24.222656c0,3.344025 -8.283081,6.055389 -18.500671,6.055389c-10.217468,0 -18.500854,-2.711365 -18.500854,-6.055389l0,-24.222656z" stroke-linecap="null" stroke-linejoin="null" stroke-dasharray="null" stroke-width="5" stroke="#000000" fill="#56aaff"/>
  <path id="svg_88" d="m541.772339,281.389496c0,3.344269 -8.283081,6.055389 -18.500671,6.055389m18.500671,-6.055389l0,0c0,3.344269 -8.283081,6.055389 -18.500671,6.055389c-10.217468,0 -18.500854,-2.711121 -18.500854,-6.055389m0,0l0,0c0,-3.343964 8.283386,-6.05545 18.500854,-6.05545c10.21759,0 18.500671,2.711487 18.500671,6.05545l0,24.222656c0,3.344025 -8.283081,6.055389 -18.500671,6.055389c-10.217468,0 -18.500854,-2.711365 -18.500854,-6.055389l0,-24.222656z" stroke-linecap="null" stroke-linejoin="null" stroke-dasharray="null" stroke-width="5" stroke="#000000" fill="#56aaff"/>
  <path id="svg_89" d="m188.231323,140.387543c0,3.344269 -8.283081,6.055389 -18.500671,6.055389m18.500671,-6.055389l0,0c0,3.344269 -8.283081,6.055389 -18.500671,6.055389c-10.217468,0 -18.500854,-2.711121 -18.500854,-6.055389m0,0l0,0c0,-3.343964 8.283386,-6.05545 18.500854,-6.05545c10.21759,0 18.500671,2.711487 18.500671,6.05545l0,24.222656c0,3.344025 -8.283081,6.055389 -18.500671,6.055389c-10.217468,0 -18.500854,-2.711365 -18.500854,-6.055389l0,-24.222656z" stroke-linecap="null" stroke-linejoin="null" stroke-dasharray="null" stroke-width="5" stroke="#000000" fill="#56aaff"/>
  <path id="svg_90" d="m451.772339,283.389496c0,3.344269 -8.283081,6.055389 -18.500671,6.055389m18.500671,-6.055389l0,0c0,3.344269 -8.283081,6.055389 -18.500671,6.055389c-10.217468,0 -18.500854,-2.711121 -18.500854,-6.055389m0,0l0,0c0,-3.343964 8.283386,-6.05545 18.500854,-6.05545c10.21759,0 18.500671,2.711487 18.500671,6.05545l0,24.222656c0,3.344025 -8.283081,6.055389 -18.500671,6.055389c-10.217468,0 -18.500854,-2.711365 -18.500854,-6.055389l0,-24.222656z" stroke-linecap="null" stroke-linejoin="null" stroke-dasharray="null" stroke-width="5" stroke="#000000" fill="#56aaff"/>
  <path id="svg_91" d="m143.772339,140.389496c0,3.344269 -8.283081,6.055389 -18.500671,6.055389m18.500671,-6.055389l0,0c0,3.344269 -8.283081,6.055389 -18.500671,6.055389c-10.217468,0 -18.500854,-2.711121 -18.500854,-6.055389m0,0l0,0c0,-3.343964 8.283386,-6.05545 18.500854,-6.05545c10.21759,0 18.500671,2.711487 18.500671,6.05545l0,24.222656c0,3.344025 -8.283081,6.055389 -18.500671,6.055389c-10.217468,0 -18.500854,-2.711365 -18.500854,-6.055389l0,-24.222656z" stroke-linecap="null" stroke-linejoin="null" stroke-dasharray="null" stroke-width="5" stroke="#000000" fill="#56aaff"/>
  <path id="svg_92" d="m495.772339,376.389496c0,3.344269 -8.283081,6.055389 -18.500671,6.055389m18.500671,-6.055389l0,0c0,3.344269 -8.283081,6.055389 -18.500671,6.055389c-10.217468,0 -18.500854,-2.711121 -18.500854,-6.055389m0,0l0,0c0,-3.343964 8.283386,-6.05545 18.500854,-6.05545c10.21759,0 18.500671,2.711487 18.500671,6.05545l0,24.222656c0,3.344025 -8.283081,6.055389 -18.500671,6.055389c-10.217468,0 -18.500854,-2.711365 -18.500854,-6.055389l0,-24.222656z" stroke-linecap="null" stroke-linejoin="null" stroke-dasharray="null" stroke-width="5" stroke="#000000" fill="#56aaff"/>
  <path id="svg_93" d="m98.231323,139.387543c0,3.344269 -8.283081,6.055389 -18.500671,6.055389m18.500671,-6.055389l0,0c0,3.344269 -8.283081,6.055389 -18.500671,6.055389c-10.217468,0 -18.500854,-2.711121 -18.500854,-6.055389m0,0l0,0c0,-3.343964 8.283386,-6.05545 18.500854,-6.05545c10.21759,0 18.500671,2.711487 18.500671,6.05545l0,24.222656c0,3.344025 -8.283081,6.055389 -18.500671,6.055389c-10.217468,0 -18.500854,-2.711365 -18.500854,-6.055389l0,-24.222656z" stroke-linecap="null" stroke-linejoin="null" stroke-dasharray="null" stroke-width="5" stroke="#000000" fill="#56aaff"/>
  <path id="svg_94" d="m496.772339,283.389496c0,3.344269 -8.283081,6.055389 -18.500671,6.055389m18.500671,-6.055389l0,0c0,3.344269 -8.283081,6.055389 -18.500671,6.055389c-10.217468,0 -18.500854,-2.711121 -18.500854,-6.055389m0,0l0,0c0,-3.343964 8.283386,-6.05545 18.500854,-6.05545c10.21759,0 18.500671,2.711487 18.500671,6.05545l0,24.222656c0,3.344025 -8.283081,6.055389 -18.500671,6.055389c-10.217468,0 -18.500854,-2.711365 -18.500854,-6.055389l0,-24.222656z" stroke-linecap="null" stroke-linejoin="null" stroke-dasharray="null" stroke-width="5" stroke="#000000" fill="#56aaff"/>
  <path id="svg_95" d="m364.772339,144.389496c0,3.344269 -8.283081,6.055389 -18.500671,6.055389m18.500671,-6.055389l0,0c0,3.344269 -8.283081,6.055389 -18.500671,6.055389c-10.217468,0 -18.500854,-2.711121 -18.500854,-6.055389m0,0l0,0c0,-3.343964 8.283386,-6.05545 18.500854,-6.05545c10.21759,0 18.500671,2.711487 18.500671,6.05545l0,24.222656c0,3.344025 -8.283081,6.055389 -18.500671,6.055389c-10.217468,0 -18.500854,-2.711365 -18.500854,-6.055389l0,-24.222656z" stroke-linecap="null" stroke-linejoin="null" stroke-dasharray="null" stroke-width="5" stroke="#000000" fill="#56aaff"/>
  <path id="svg_96" d="m498.772339,425.389526c0,3.344238 -8.283081,6.055359 -18.500671,6.055359m18.500671,-6.055359l0,0c0,3.344238 -8.283081,6.055359 -18.500671,6.055359c-10.217468,0 -18.500854,-2.711121 -18.500854,-6.055359m0,0l0,0c0,-3.343994 8.283386,-6.055481 18.500854,-6.055481c10.21759,0 18.500671,2.711487 18.500671,6.055481l0,24.222656c0,3.343994 -8.283081,6.055359 -18.500671,6.055359c-10.217468,0 -18.500854,-2.711365 -18.500854,-6.055359l0,-24.222656z" stroke-linecap="null" stroke-linejoin="null" stroke-dasharray="null" stroke-width="5" stroke="#000000" fill="#56aaff"/>
  <path id="svg_97" d="m98.231323,95.387543c0,3.344269 -8.283081,6.055389 -18.500671,6.055389m18.500671,-6.055389l0,0c0,3.344269 -8.283081,6.055389 -18.500671,6.055389c-10.217468,0 -18.500854,-2.711121 -18.500854,-6.055389m0,0l0,0c0,-3.343964 8.283386,-6.05545 18.500854,-6.05545c10.21759,0 18.500671,2.711487 18.500671,6.05545l0,24.222656c0,3.344025 -8.283081,6.055389 -18.500671,6.055389c-10.217468,0 -18.500854,-2.711365 -18.500854,-6.055389l0,-24.222656z" stroke-linecap="null" stroke-linejoin="null" stroke-dasharray="null" stroke-width="5" stroke="#000000" fill="#56aaff"/>
  <path id="svg_98" d="m495.772339,329.389496c0,3.344269 -8.283081,6.055389 -18.500671,6.055389m18.500671,-6.055389l0,0c0,3.344269 -8.283081,6.055389 -18.500671,6.055389c-10.217468,0 -18.500854,-2.711121 -18.500854,-6.055389m0,0l0,0c0,-3.343964 8.283386,-6.05545 18.500854,-6.05545c10.21759,0 18.500671,2.711487 18.500671,6.05545l0,24.222656c0,3.344025 -8.283081,6.055389 -18.500671,6.055389c-10.217468,0 -18.500854,-2.711365 -18.500854,-6.055389l0,-24.222656z" stroke-linecap="null" stroke-linejoin="null" stroke-dasharray="null" stroke-width="5" stroke="#000000" fill="#56aaff"/>
  <path id="svg_99" d="m276.772339,190.389496c0,3.344269 -8.283081,6.055389 -18.500671,6.055389m18.500671,-6.055389l0,0c0,3.344269 -8.283081,6.055389 -18.500671,6.055389c-10.217468,0 -18.500854,-2.711121 -18.500854,-6.055389m0,0l0,0c0,-3.343964 8.283386,-6.05545 18.500854,-6.05545c10.21759,0 18.500671,2.711487 18.500671,6.05545l0,24.222656c0,3.344025 -8.283081,6.055389 -18.500671,6.055389c-10.217468,0 -18.500854,-2.711365 -18.500854,-6.055389l0,-24.222656z" stroke-linecap="null" stroke-linejoin="null" stroke-dasharray="null" stroke-width="5" stroke="#000000" fill="#56aaff"/>
  <path id="svg_100" d="m453.772339,425.389526c0,3.344238 -8.283081,6.055359 -18.500671,6.055359m18.500671,-6.055359l0,0c0,3.344238 -8.283081,6.055359 -18.500671,6.055359c-10.217468,0 -18.500854,-2.711121 -18.500854,-6.055359m0,0l0,0c0,-3.343994 8.283386,-6.055481 18.500854,-6.055481c10.21759,0 18.500671,2.711487 18.500671,6.055481l0,24.222656c0,3.343994 -8.283081,6.055359 -18.500671,6.055359c-10.217468,0 -18.500854,-2.711365 -18.500854,-6.055359l0,-24.222656z" stroke-linecap="null" stroke-linejoin="null" stroke-dasharray="null" stroke-width="5" stroke="#000000" fill="#56aaff"/>
  <path id="svg_101" d="m188.231323,189.387543c0,3.344269 -8.283081,6.055389 -18.500671,6.055389m18.500671,-6.055389l0,0c0,3.344269 -8.283081,6.055389 -18.500671,6.055389c-10.217468,0 -18.500854,-2.711121 -18.500854,-6.055389m0,0l0,0c0,-3.343964 8.283386,-6.05545 18.500854,-6.05545c10.21759,0 18.500671,2.711487 18.500671,6.05545l0,24.222656c0,3.344025 -8.283081,6.055389 -18.500671,6.055389c-10.217468,0 -18.500854,-2.711365 -18.500854,-6.055389l0,-24.222656z" stroke-linecap="null" stroke-linejoin="null" stroke-dasharray="null" stroke-width="5" stroke="#000000" fill="#56aaff"/>
  <path id="svg_102" d="m275.772339,284.389496c0,3.344269 -8.283081,6.055389 -18.500671,6.055389m18.500671,-6.055389l0,0c0,3.344269 -8.283081,6.055389 -18.500671,6.055389c-10.217468,0 -18.500854,-2.711121 -18.500854,-6.055389m0,0l0,0c0,-3.343964 8.283386,-6.05545 18.500854,-6.05545c10.21759,0 18.500671,2.711487 18.500671,6.05545l0,24.222656c0,3.344025 -8.283081,6.055389 -18.500671,6.055389c-10.217468,0 -18.500854,-2.711365 -18.500854,-6.055389l0,-24.222656z" stroke-linecap="null" stroke-linejoin="null" stroke-dasharray="null" stroke-width="5" stroke="#000000" fill="#56aaff"/>
  <path id="svg_103" d="m319.772339,239.389496c0,3.344269 -8.283081,6.055389 -18.500671,6.055389m18.500671,-6.055389l0,0c0,3.344269 -8.283081,6.055389 -18.500671,6.055389c-10.217468,0 -18.500854,-2.711121 -18.500854,-6.055389m0,0l0,0c0,-3.343964 8.283386,-6.05545 18.500854,-6.05545c10.21759,0 18.500671,2.711487 18.500671,6.05545l0,24.222656c0,3.344025 -8.283081,6.055389 -18.500671,6.055389c-10.217468,0 -18.500854,-2.711365 -18.500854,-6.055389l0,-24.222656z" stroke-linecap="null" stroke-linejoin="null" stroke-dasharray="null" stroke-width="5" stroke="#000000" fill="#56aaff"/>
  <path id="svg_105" d="m99.231323,188.387573c0,3.344238 -8.283081,6.055359 -18.500671,6.055359m18.500671,-6.055359l0,0c0,3.344238 -8.283081,6.055359 -18.500671,6.055359c-10.217468,0 -18.500854,-2.711121 -18.500854,-6.055359m0,0l0,0c0,-3.343994 8.283386,-6.055481 18.500854,-6.055481c10.21759,0 18.500671,2.711487 18.500671,6.055481l0,24.222656c0,3.343994 -8.283081,6.055359 -18.500671,6.055359c-10.217468,0 -18.500854,-2.711365 -18.500854,-6.055359l0,-24.222656z" stroke-linecap="null" stroke-linejoin="null" stroke-dasharray="null" stroke-width="5" stroke="#000000" fill="#56aaff"/>
  <path id="svg_106" d="m364.772339,286.389526c0,3.344238 -8.283081,6.055359 -18.500671,6.055359m18.500671,-6.055359l0,0c0,3.344238 -8.283081,6.055359 -18.500671,6.055359c-10.217468,0 -18.500854,-2.711121 -18.500854,-6.055359m0,0l0,0c0,-3.343994 8.283386,-6.055481 18.500854,-6.055481c10.21759,0 18.500671,2.711487 18.500671,6.055481l0,24.222656c0,3.343994 -8.283081,6.055359 -18.500671,6.055359c-10.217468,0 -18.500854,-2.711365 -18.500854,-6.055359l0,-24.222656z" stroke-linecap="null" stroke-linejoin="null" stroke-dasharray="null" stroke-width="5" stroke="#000000" fill="#56aaff"/>
  <path id="svg_107" d="m274.772339,238.389526c0,3.344238 -8.283081,6.055359 -18.500671,6.055359m18.500671,-6.055359l0,0c0,3.344238 -8.283081,6.055359 -18.500671,6.055359c-10.217468,0 -18.500854,-2.711121 -18.500854,-6.055359m0,0l0,0c0,-3.343994 8.283386,-6.055481 18.500854,-6.055481c10.21759,0 18.500671,2.711487 18.500671,6.055481l0,24.222656c0,3.343994 -8.283081,6.055359 -18.500671,6.055359c-10.217468,0 -18.500854,-2.711365 -18.500854,-6.055359l0,-24.222656z" stroke-linecap="null" stroke-linejoin="null" stroke-dasharray="null" stroke-width="5" stroke="#000000" fill="#56aaff"/>
  <rect id="svg_169" height="37.999999" width="33.999999" y="419.500001" x="198.000001" stroke-width="5" stroke="#000000" fill="#005fbf"/>
  <rect id="svg_170" height="37" width="37" y="420" x="64" stroke-width="5" stroke="#000000" fill="#005fbf"/>
  <rect id="svg_171" height="36" width="36" y="420.5" x="109" stroke-width="5" stroke="#000000" fill="#005fbf"/>
  <rect id="svg_172" height="37" width="37" y="420" x="153" stroke-width="5" stroke="#000000" fill="#005fbf"/>
  <rect id="svg_173" height="37.999999" width="33.999999" y="419.500001" x="374.000001" stroke-width="5" stroke="#000000" fill="#005fbf"/>
  <rect id="svg_174" height="37" width="37" y="420" x="240" stroke-width="5" stroke="#000000" fill="#005fbf"/>
  <rect id="svg_175" height="36" width="36" y="420.5" x="285" stroke-width="5" stroke="#000000" fill="#005fbf"/>
  <rect id="svg_176" height="37" width="37" y="420" x="329" stroke-width="5" stroke="#000000" fill="#005fbf"/>
  <rect id="svg_177" height="37.999999" width="33.999999" y="371.500001" x="197.000001" stroke-width="5" stroke="#000000" fill="#005fbf"/>
  <rect id="svg_178" height="37" width="37" y="371.5" x="64" stroke-width="5" stroke="#000000" fill="#005fbf"/>
  <rect id="svg_179" height="36" width="36" y="372.5" x="108" stroke-width="5" stroke="#000000" fill="#005fbf"/>
  <rect id="svg_180" height="37" width="37" y="372.5" x="152" stroke-width="5" stroke="#000000" fill="#005fbf"/>
  <rect id="svg_181" height="37.999999" width="33.999999" y="373.000001" x="374.000001" stroke-width="5" stroke="#000000" fill="#005fbf"/>
  <rect id="svg_182" height="37" width="37" y="373" x="239" stroke-width="5" stroke="#000000" fill="#005fbf"/>
  <rect id="svg_183" height="36" width="36" y="374" x="284" stroke-width="5" stroke="#000000" fill="#005fbf"/>
  <rect id="svg_184" height="37" width="37" y="374" x="328" stroke-width="5" stroke="#000000" fill="#005fbf"/>
  <rect id="svg_185" height="37.999999" width="33.999999" y="322.250001" x="504.500001" stroke-width="5" stroke="#000000" fill="#005fbf"/>
  <rect id="svg_186" height="36" width="36" y="323.25" x="415.5" stroke-width="5" stroke="#000000" fill="#005fbf"/>
  <rect id="svg_191" height="37.999999" width="33.999999" y="228.750001" x="504.500001" stroke-width="5" stroke="#000000" fill="#005fbf"/>
  <rect id="svg_192" height="36" width="36" y="229.75" x="414.5" stroke-width="5" stroke="#000000" fill="#005fbf"/>
  <rect id="svg_193" height="37" width="37" y="229.75" x="458.5" stroke-width="5" stroke="#000000" fill="#005fbf"/>
  <rect id="svg_194" height="37.999999" width="33.999999" y="181.750001" x="504.500001" stroke-width="5" stroke="#000000" fill="#005fbf"/>
  <rect id="svg_195" height="36" width="36" y="182.75" x="414.5" stroke-width="5" stroke="#000000" fill="#005fbf"/>
  <rect id="svg_196" height="37" width="37" y="182.75" x="458.5" stroke-width="5" stroke="#000000" fill="#005fbf"/>
  <rect id="svg_197" height="37.999999" width="33.999999" y="133.750001" x="504.500001" stroke-width="5" stroke="#000000" fill="#005fbf"/>
  <rect id="svg_198" height="36" width="36" y="134.75" x="416.5" stroke-width="5" stroke="#000000" fill="#005fbf"/>
  <rect id="svg_199" height="37" width="37" y="134.75" x="460.5" stroke-width="5" stroke="#000000" fill="#005fbf"/>
  <rect id="svg_200" height="37.999999" width="33.999999" y="87.750001" x="504.500001" stroke-width="5" stroke="#000000" fill="#005fbf"/>
  <rect id="svg_201" height="36" width="36" y="88.75" x="415.5" stroke-width="5" stroke="#000000" fill="#005fbf"/>
  <rect id="svg_202" height="37" width="37" y="88.75" x="459.5" stroke-width="5" stroke="#000000" fill="#005fbf"/>
  <rect id="svg_203" height="37.999999" width="33.999999" y="38.000001" x="504.500001" stroke-width="5" stroke="#000000" fill="#005fbf"/>
  <rect id="svg_204" height="36" width="36" y="39" x="415.5" stroke-width="5" stroke="#000000" fill="#005fbf"/>
  <rect id="svg_205" height="37" width="37" y="38.5" x="459.5" stroke-width="5" stroke="#000000" fill="#005fbf"/>
  <rect id="svg_206" height="37.999999" width="33.999999" y="417.000001" x="506.500001" stroke-width="5" stroke="#000000" fill="#005fbf"/>
  <rect id="svg_209" height="37.999999" width="33.999999" y="370.500001" x="505.500001" stroke-width="5" stroke="#000000" fill="#005fbf"/>
  <rect id="svg_210" height="36" width="36" y="371.5" x="415.5" stroke-width="5" stroke="#000000" fill="#005fbf"/>
  <rect id="svg_212" height="37.999999" width="33.999999" y="182.500001" x="109.000001" stroke-width="5" stroke="#000000" fill="#005fbf"/>
  <rect id="svg_213" height="37.999999" width="33.999999" y="88.500001" x="109.000001" stroke-width="5" stroke="#000000" fill="#005fbf"/>
  <rect id="svg_214" height="37.999999" width="33.999999" y="184.500001" x="285.000001" stroke-width="5" stroke="#000000" fill="#005fbf"/>
  <rect id="svg_215" height="37.999999" width="33.999999" y="233.500001" x="330.000001" stroke-width="5" stroke="#000000" fill="#005fbf"/>
  <rect id="svg_216" height="37.999999" width="33.999999" y="279.500001" x="285.000001" stroke-width="5" stroke="#000000" fill="#005fbf"/>
 </g>
</svg>